<svg xmlns="http://www.w3.org/2000/svg" width="1200" height="675" viewBox="0 0 1200 675">
  <defs>
    <linearGradient id="bg" x1="0" y1="0" x2="1" y2="1">
      <stop offset="0" stop-color="#0b0f1a"/>
      <stop offset="1" stop-color="#0a0a0a"/>
    </linearGradient>
    <linearGradient id="gold" x1="0" y1="0" x2="1" y2="0">
      <stop offset="0" stop-color="#ffb84d" stop-opacity="0.9"/>
      <stop offset="1" stop-color="#ffd89a" stop-opacity="0.9"/>
    </linearGradient>
  </defs>
  <rect width="1200" height="675" fill="url(#bg)"/>
  <g fill="none" stroke="#ffb84d" stroke-opacity="0.22">
    <path d="M120 500C260 360 420 290 590 300c210 12 350 140 490 120" stroke-width="5"/>
    <path d="M170 560c170-160 340-220 520-200 190 22 310 120 420 90" stroke-width="2"/>
  </g>
  <g>
    <circle cx="760" cy="320" r="170" fill="none" stroke="url(#gold)" stroke-width="10" opacity="0.55"/>
    <circle cx="760" cy="320" r="110" fill="none" stroke="#ffb84d" stroke-width="2" stroke-opacity="0.35"/>
    <circle cx="760" cy="320" r="55" fill="none" stroke="#ffb84d" stroke-width="2" stroke-opacity="0.45"/>
    <circle cx="760" cy="320" r="6" fill="#ffb84d" opacity="0.8"/>
  </g>
  <g>
    <rect x="170" y="250" width="300" height="210" rx="18" fill="none" stroke="#ffb84d" stroke-opacity="0.28" stroke-width="4"/>
    <path d="M205 420V290h230v130" fill="none" stroke="#ffb84d" stroke-opacity="0.22" stroke-width="3"/>
    <path d="M205 330h230" fill="none" stroke="#ffb84d" stroke-opacity="0.16" stroke-width="2"/>
    <path d="M205 370h230" fill="none" stroke="#ffb84d" stroke-opacity="0.16" stroke-width="2"/>
    <text x="195" y="240" fill="#ffb84d" opacity="0.75" font-family="ui-monospace, SFMono-Regular, Menlo, Monaco, Consolas, monospace" font-size="18">
      BASE · ERC-20 · HHFS
    </text>
  </g>
</svg>


